<mxfile host="app.diagrams.net" modified="2024-03-26T07:21:29.741Z" agent="Mozilla/5.0 (Windows NT 10.0; Win64; x64) AppleWebKit/537.36 (KHTML, like Gecko) Chrome/123.0.0.0 Safari/537.36" etag="Nv79X3usOArtcIS_yeKP" version="21.6.6" type="google">
  <diagram name="Страница 1" id="hJpCGlF2iGGSJaOI4xDi">
    <mxGraphModel grid="1" page="1" gridSize="10" guides="1" tooltips="1" connect="1" arrows="1" fold="1" pageScale="1" pageWidth="827" pageHeight="1169" math="0" shadow="0">
      <root>
        <mxCell id="0" />
        <mxCell id="1" parent="0" />
        <mxCell id="0XhtCuTeDrvZAMeXQaSg-3" value="" style="edgeStyle=orthogonalEdgeStyle;rounded=0;orthogonalLoop=1;jettySize=auto;html=1;" edge="1" parent="1" source="0XhtCuTeDrvZAMeXQaSg-1">
          <mxGeometry relative="1" as="geometry">
            <mxPoint x="355" y="120" as="targetPoint" />
          </mxGeometry>
        </mxCell>
        <mxCell id="0XhtCuTeDrvZAMeXQaSg-1" value="Start" style="ellipse;whiteSpace=wrap;html=1;" vertex="1" parent="1">
          <mxGeometry x="240" y="30" width="230" height="50" as="geometry" />
        </mxCell>
        <mxCell id="0XhtCuTeDrvZAMeXQaSg-8" value="" style="edgeStyle=orthogonalEdgeStyle;rounded=0;orthogonalLoop=1;jettySize=auto;html=1;" edge="1" parent="1" source="0XhtCuTeDrvZAMeXQaSg-4">
          <mxGeometry relative="1" as="geometry">
            <mxPoint x="355" y="290" as="targetPoint" />
          </mxGeometry>
        </mxCell>
        <mxCell id="0XhtCuTeDrvZAMeXQaSg-4" value="array1 [“Hello”, “2”, “world”, “:-)”]&amp;nbsp;&lt;br style=&quot;border-color: var(--border-color);&quot;&gt;count = 0&lt;br&gt;i = 0&lt;br&gt;size = array1.length" style="rounded=0;whiteSpace=wrap;html=1;" vertex="1" parent="1">
          <mxGeometry x="225" y="190" width="260" height="60" as="geometry" />
        </mxCell>
        <mxCell id="0XhtCuTeDrvZAMeXQaSg-6" value="" style="edgeStyle=orthogonalEdgeStyle;rounded=0;orthogonalLoop=1;jettySize=auto;html=1;" edge="1" parent="1" source="0XhtCuTeDrvZAMeXQaSg-5" target="0XhtCuTeDrvZAMeXQaSg-4">
          <mxGeometry relative="1" as="geometry" />
        </mxCell>
        <mxCell id="0XhtCuTeDrvZAMeXQaSg-5" value="array2[]" style="shape=parallelogram;perimeter=parallelogramPerimeter;whiteSpace=wrap;html=1;fixedSize=1;" vertex="1" parent="1">
          <mxGeometry x="235" y="120" width="240" height="40" as="geometry" />
        </mxCell>
        <mxCell id="0XhtCuTeDrvZAMeXQaSg-11" value="" style="edgeStyle=orthogonalEdgeStyle;rounded=0;orthogonalLoop=1;jettySize=auto;html=1;" edge="1" parent="1" source="0XhtCuTeDrvZAMeXQaSg-9" target="0XhtCuTeDrvZAMeXQaSg-10">
          <mxGeometry relative="1" as="geometry" />
        </mxCell>
        <mxCell id="0XhtCuTeDrvZAMeXQaSg-12" value="yes" style="edgeLabel;html=1;align=center;verticalAlign=middle;resizable=0;points=[];" connectable="0" vertex="1" parent="0XhtCuTeDrvZAMeXQaSg-11">
          <mxGeometry x="-0.1733" y="-2" relative="1" as="geometry">
            <mxPoint as="offset" />
          </mxGeometry>
        </mxCell>
        <mxCell id="0XhtCuTeDrvZAMeXQaSg-31" value="" style="edgeStyle=orthogonalEdgeStyle;rounded=0;orthogonalLoop=1;jettySize=auto;html=1;" edge="1" parent="1" source="0XhtCuTeDrvZAMeXQaSg-9" target="0XhtCuTeDrvZAMeXQaSg-30">
          <mxGeometry relative="1" as="geometry" />
        </mxCell>
        <mxCell id="0XhtCuTeDrvZAMeXQaSg-34" value="no" style="edgeLabel;html=1;align=center;verticalAlign=middle;resizable=0;points=[];" connectable="0" vertex="1" parent="0XhtCuTeDrvZAMeXQaSg-31">
          <mxGeometry x="-0.1429" y="-1" relative="1" as="geometry">
            <mxPoint as="offset" />
          </mxGeometry>
        </mxCell>
        <mxCell id="0XhtCuTeDrvZAMeXQaSg-9" value="i &amp;lt; size" style="rhombus;whiteSpace=wrap;html=1;" vertex="1" parent="1">
          <mxGeometry x="270" y="290" width="170" height="70" as="geometry" />
        </mxCell>
        <mxCell id="0XhtCuTeDrvZAMeXQaSg-21" style="edgeStyle=orthogonalEdgeStyle;rounded=0;orthogonalLoop=1;jettySize=auto;html=1;entryX=0;entryY=0.5;entryDx=0;entryDy=0;" edge="1" parent="1" source="0XhtCuTeDrvZAMeXQaSg-10" target="0XhtCuTeDrvZAMeXQaSg-13">
          <mxGeometry relative="1" as="geometry" />
        </mxCell>
        <mxCell id="0XhtCuTeDrvZAMeXQaSg-26" value="yes" style="edgeLabel;html=1;align=center;verticalAlign=middle;resizable=0;points=[];" connectable="0" vertex="1" parent="0XhtCuTeDrvZAMeXQaSg-21">
          <mxGeometry x="0.0462" relative="1" as="geometry">
            <mxPoint as="offset" />
          </mxGeometry>
        </mxCell>
        <mxCell id="0XhtCuTeDrvZAMeXQaSg-25" value="" style="edgeStyle=orthogonalEdgeStyle;rounded=0;orthogonalLoop=1;jettySize=auto;html=1;" edge="1" parent="1" source="0XhtCuTeDrvZAMeXQaSg-10" target="0XhtCuTeDrvZAMeXQaSg-24">
          <mxGeometry relative="1" as="geometry" />
        </mxCell>
        <mxCell id="0XhtCuTeDrvZAMeXQaSg-27" value="no" style="edgeLabel;html=1;align=center;verticalAlign=middle;resizable=0;points=[];" connectable="0" vertex="1" parent="0XhtCuTeDrvZAMeXQaSg-25">
          <mxGeometry x="-0.191" relative="1" as="geometry">
            <mxPoint as="offset" />
          </mxGeometry>
        </mxCell>
        <mxCell id="0XhtCuTeDrvZAMeXQaSg-10" value="array1[i] &amp;lt;= 3" style="rhombus;whiteSpace=wrap;html=1;" vertex="1" parent="1">
          <mxGeometry x="240" y="400" width="230" height="80" as="geometry" />
        </mxCell>
        <mxCell id="0XhtCuTeDrvZAMeXQaSg-23" style="edgeStyle=orthogonalEdgeStyle;rounded=0;orthogonalLoop=1;jettySize=auto;html=1;entryX=0.5;entryY=0;entryDx=0;entryDy=0;" edge="1" parent="1" source="0XhtCuTeDrvZAMeXQaSg-13" target="0XhtCuTeDrvZAMeXQaSg-16">
          <mxGeometry relative="1" as="geometry" />
        </mxCell>
        <mxCell id="0XhtCuTeDrvZAMeXQaSg-13" value="array2[count] = array1[i]" style="whiteSpace=wrap;html=1;" vertex="1" parent="1">
          <mxGeometry x="535" y="422.5" width="170" height="35" as="geometry" />
        </mxCell>
        <mxCell id="0XhtCuTeDrvZAMeXQaSg-28" style="edgeStyle=orthogonalEdgeStyle;rounded=0;orthogonalLoop=1;jettySize=auto;html=1;entryX=1;entryY=0.5;entryDx=0;entryDy=0;" edge="1" parent="1" source="0XhtCuTeDrvZAMeXQaSg-16" target="0XhtCuTeDrvZAMeXQaSg-24">
          <mxGeometry relative="1" as="geometry" />
        </mxCell>
        <mxCell id="0XhtCuTeDrvZAMeXQaSg-16" value="count = count + 1" style="whiteSpace=wrap;html=1;" vertex="1" parent="1">
          <mxGeometry x="560" y="527.25" width="120" height="30" as="geometry" />
        </mxCell>
        <mxCell id="0XhtCuTeDrvZAMeXQaSg-29" style="edgeStyle=orthogonalEdgeStyle;rounded=0;orthogonalLoop=1;jettySize=auto;html=1;entryX=0;entryY=0.5;entryDx=0;entryDy=0;" edge="1" parent="1" source="0XhtCuTeDrvZAMeXQaSg-24" target="0XhtCuTeDrvZAMeXQaSg-9">
          <mxGeometry relative="1" as="geometry">
            <Array as="points">
              <mxPoint x="210" y="542" />
              <mxPoint x="210" y="325" />
            </Array>
          </mxGeometry>
        </mxCell>
        <mxCell id="0XhtCuTeDrvZAMeXQaSg-24" value="i = i + 1" style="whiteSpace=wrap;html=1;" vertex="1" parent="1">
          <mxGeometry x="295" y="524.5" width="120" height="35.5" as="geometry" />
        </mxCell>
        <mxCell id="0XhtCuTeDrvZAMeXQaSg-33" value="" style="edgeStyle=orthogonalEdgeStyle;rounded=0;orthogonalLoop=1;jettySize=auto;html=1;" edge="1" parent="1" source="0XhtCuTeDrvZAMeXQaSg-30" target="0XhtCuTeDrvZAMeXQaSg-32">
          <mxGeometry relative="1" as="geometry" />
        </mxCell>
        <mxCell id="0XhtCuTeDrvZAMeXQaSg-30" value="array2" style="shape=document;whiteSpace=wrap;html=1;boundedLbl=1;" vertex="1" parent="1">
          <mxGeometry x="545" y="285" width="120" height="80" as="geometry" />
        </mxCell>
        <mxCell id="0XhtCuTeDrvZAMeXQaSg-32" value="End" style="ellipse;whiteSpace=wrap;html=1;" vertex="1" parent="1">
          <mxGeometry x="710" y="297.5" width="90" height="55" as="geometry" />
        </mxCell>
      </root>
    </mxGraphModel>
  </diagram>
</mxfile>
